<svg width="1400" viewBox="0 0 1400 2020" xmlns="http://www.w3.org/2000/svg" style="background:#ffffff">
<style>
  text { font-family: 'Helvetica Neue', Arial, sans-serif; }
  .th { font-size: 15px; font-weight: 600; }
  .ts { font-size: 12px; font-weight: 400; fill: #555; }
  .title { font-size: 20px; font-weight: 700; fill: #1a1a1a; }
  .subtitle { font-size: 13px; font-weight: 400; fill: #666; }
  .arr { stroke: #888; stroke-width: 1.2; }
  .legend-text { font-size: 11px; fill: #444; }
  .confirmed { font-size: 10px; font-weight: 600; fill: #0F6E56; }
  .inferred { font-size: 10px; font-weight: 600; fill: #534AB7; }
  .hypothesized { font-size: 10px; font-weight: 600; fill: #854F0B; }
  .felt-pain { font-size: 10px; font-weight: 600; fill: #A32D2D; }
</style>
<defs><marker id="arrow" viewBox="0 0 10 10" refX="8" refY="5" markerWidth="6" markerHeight="6" orient="auto-start-reverse"><path d="M2 1L8 5L2 9" fill="none" stroke="#888" stroke-width="1.5" stroke-linecap="round" stroke-linejoin="round"/></marker></defs>

<text class="title" x="700" y="35" text-anchor="middle">Customer's current reality tree v3</text>
<text class="subtitle" x="700" y="55" text-anchor="middle">Grounded in field observations, workshop data, and DORA 2025. Read bottom-up: causes flow upward to effects.</text>

<!-- ===== TIER 1: TOP BUSINESS PAIN ===== -->
<text class="th" x="700" y="95" text-anchor="middle" fill="#791F1F">Business outcomes (what the customer feels)</text>

<rect x="60" y="115" width="300" height="62" rx="8" fill="#FCEBEB" stroke="#A32D2D" stroke-width="0.8"/>
<text class="confirmed" x="76" y="130">CONFIRMED</text>
<text class="felt-pain" x="280" y="130">BUYING TRIGGER</text>
<text class="th" x="210" y="148" text-anchor="middle" fill="#791F1F">C1: Delivery is unpredictable</text>
<text class="ts" x="210" y="164" text-anchor="middle" fill="#A32D2D">"What's getting in the way of predictable delivery?"</text>

<rect x="400" y="115" width="280" height="62" rx="8" fill="#FCEBEB" stroke="#A32D2D" stroke-width="0.8"/>
<text class="confirmed" x="416" y="130">CONFIRMED</text>
<text class="th" x="540" y="148" text-anchor="middle" fill="#791F1F">C2: Throughput is low</text>
<text class="ts" x="540" y="164" text-anchor="middle" fill="#A32D2D">Too much WIP ù Little's Law ù slow flow.</text>

<rect x="720" y="115" width="300" height="62" rx="8" fill="#FCEBEB" stroke="#A32D2D" stroke-width="0.8"/>
<text class="inferred" x="736" y="130">INFERRED</text>
<text class="th" x="870" y="148" text-anchor="middle" fill="#791F1F">C3: Customer satisfaction declining</text>
<text class="ts" x="870" y="164" text-anchor="middle" fill="#A32D2D">Late deliveries, missing features, quality issues.</text>

<rect x="1060" y="115" width="300" height="62" rx="8" fill="#FCEBEB" stroke="#A32D2D" stroke-width="0.8"/>
<text class="inferred" x="1076" y="130">INFERRED</text>
<text class="th" x="1210" y="148" text-anchor="middle" fill="#791F1F">C4: Revenue at risk</text>
<text class="ts" x="1210" y="164" text-anchor="middle" fill="#A32D2D">Can't penetrate market. Lose deals.</text>

<!-- ===== TIER 2: DELIVERY SYSTEM PROBLEMS ===== -->
<text class="th" x="700" y="230" text-anchor="middle" fill="#712B13">Delivery system problems</text>

<rect x="60" y="250" width="300" height="62" rx="8" fill="#FAECE7" stroke="#993C1D" stroke-width="0.8"/>
<text class="confirmed" x="76" y="265">CONFIRMED</text>
<text class="th" x="210" y="283" text-anchor="middle" fill="#712B13">C5: Planning is wildly inconsistent</text>
<text class="ts" x="210" y="299" text-anchor="middle" fill="#993C1D">Same-day to 6 months. Plans inflated. Missing pieces.</text>

<rect x="400" y="250" width="280" height="62" rx="8" fill="#FAECE7" stroke="#993C1D" stroke-width="0.8"/>
<text class="confirmed" x="416" y="265">CONFIRMED + WORKSHOP</text>
<text class="th" x="540" y="283" text-anchor="middle" fill="#712B13">C6: Too much WIP</text>
<text class="ts" x="540" y="299" text-anchor="middle" fill="#993C1D">Customer said: "Too much work." Teams on 5+ things.</text>

<rect x="720" y="250" width="300" height="62" rx="8" fill="#FAECE7" stroke="#993C1D" stroke-width="0.8"/>
<text class="confirmed" x="736" y="265">CONFIRMED</text>
<text class="th" x="870" y="283" text-anchor="middle" fill="#712B13">C7: Late discovery of missing pieces</text>
<text class="ts" x="870" y="299" text-anchor="middle" fill="#993C1D">Find out just before delivery that something is wrong.</text>

<rect x="1060" y="250" width="300" height="62" rx="8" fill="#FAECE7" stroke="#993C1D" stroke-width="0.8"/>
<text class="confirmed" x="1076" y="265">DORA 2025</text>
<text class="th" x="1210" y="283" text-anchor="middle" fill="#712B13">C8: AI increases instability</text>
<text class="ts" x="1210" y="299" text-anchor="middle" fill="#993C1D">More PRs, more bugs, bigger changes, slower reviews.</text>

<!-- Arrows tier 2 ù tier 1 -->
<line x1="210" y1="250" x2="210" y2="177" class="arr" marker-end="url(#arrow)"/>
<line x1="540" y1="250" x2="210" y2="177" class="arr" marker-end="url(#arrow)"/>
<line x1="540" y1="250" x2="540" y2="177" class="arr" marker-end="url(#arrow)"/>
<line x1="870" y1="250" x2="540" y2="177" class="arr" marker-end="url(#arrow)"/>
<line x1="870" y1="250" x2="870" y2="177" class="arr" marker-end="url(#arrow)"/>
<line x1="1210" y1="250" x2="540" y2="177" class="arr" marker-end="url(#arrow)"/>
<line x1="1210" y1="250" x2="870" y2="177" class="arr" marker-end="url(#arrow)"/>

<!-- ===== TIER 3: ROOT CAUSES ===== -->
<text class="th" x="700" y="370" text-anchor="middle" fill="#633806">Root causes (why the delivery system is broken)</text>

<rect x="60" y="390" width="280" height="62" rx="8" fill="#FAEEDA" stroke="#854F0B" stroke-width="0.8"/>
<text class="confirmed" x="76" y="405">CONFIRMED + WORKSHOP</text>
<text class="th" x="200" y="423" text-anchor="middle" fill="#633806">C9: No WIP limits</text>
<text class="ts" x="200" y="439" text-anchor="middle" fill="#854F0B">"Unclear prioritization." Everything is a priority.</text>

<rect x="380" y="390" width="300" height="62" rx="8" fill="#FAEEDA" stroke="#854F0B" stroke-width="0.8"/>
<text class="confirmed" x="396" y="405">CONFIRMED + WORKSHOP</text>
<text class="th" x="530" y="423" text-anchor="middle" fill="#633806">C10: No visibility into the value stream</text>
<text class="ts" x="530" y="439" text-anchor="middle" fill="#854F0B">"Understand connections between modules." No e2e view.</text>

<rect x="720" y="390" width="300" height="62" rx="8" fill="#FAEEDA" stroke="#854F0B" stroke-width="0.8"/>
<text class="confirmed" x="736" y="405">CONFIRMED + WORKSHOP</text>
<text class="th" x="870" y="423" text-anchor="middle" fill="#633806">C11: Work pushed in, not pulled</text>
<text class="ts" x="870" y="439" text-anchor="middle" fill="#854F0B">"Unclear prioritization." Leadership pushes without capacity check.</text>

<rect x="1060" y="390" width="300" height="62" rx="8" fill="#FAEEDA" stroke="#854F0B" stroke-width="0.8"/>
<text class="confirmed" x="1076" y="405">DORA 2025 + FAROS</text>
<text class="th" x="1210" y="423" text-anchor="middle" fill="#633806">C12: AI amplifies existing dysfunction</text>
<text class="ts" x="1210" y="439" text-anchor="middle" fill="#854F0B">More output, same bottlenecks, more chaos.</text>

<!-- Arrows tier 3 ù tier 2 -->
<line x1="200" y1="390" x2="540" y2="312" class="arr" marker-end="url(#arrow)"/>
<line x1="200" y1="390" x2="210" y2="312" class="arr" marker-end="url(#arrow)"/>
<line x1="530" y1="390" x2="870" y2="312" class="arr" marker-end="url(#arrow)"/>
<line x1="530" y1="390" x2="210" y2="312" class="arr" marker-end="url(#arrow)"/>
<line x1="870" y1="390" x2="540" y2="312" class="arr" marker-end="url(#arrow)"/>
<line x1="870" y1="390" x2="210" y2="312" class="arr" marker-end="url(#arrow)"/>
<line x1="1210" y1="390" x2="1210" y2="312" class="arr" marker-end="url(#arrow)"/>
<line x1="1210" y1="390" x2="540" y2="312" class="arr" marker-end="url(#arrow)"/>

<!-- ===== TIER 4: WHY AI MAKES IT WORSE (NEW) ===== -->
<text class="th" x="700" y="510" text-anchor="middle" fill="#3C3489">Why AI makes it worse  local vs. global optimization (Goldratt's Rule #1)</text>

<rect x="60" y="530" width="320" height="72" rx="8" fill="#EEEDFE" stroke="#534AB7" stroke-width="0.8"/>
<text class="confirmed" x="76" y="545">DORA 2025 + FAROS</text>
<text class="th" x="220" y="565" text-anchor="middle" fill="#3C3489">C13: AI produces real local gains</text>
<text class="ts" x="220" y="581" text-anchor="middle" fill="#534AB7">Individual throughput up. PRs +98%. Tasks +21%.</text>
<text class="ts" x="220" y="595" text-anchor="middle" fill="#534AB7">These gains are real  but local, not system-level.</text>

<rect x="420" y="530" width="320" height="72" rx="8" fill="#EEEDFE" stroke="#534AB7" stroke-width="0.8"/>
<text class="inferred" x="436" y="545">INFERRED (90% adoption)</text>
<text class="th" x="580" y="565" text-anchor="middle" fill="#3C3489">C14: Board/CEO pressure to adopt AI</text>
<text class="ts" x="580" y="581" text-anchor="middle" fill="#534AB7">Career risk to NOT adopt. "We need an AI strategy."</text>
<text class="ts" x="580" y="595" text-anchor="middle" fill="#534AB7">AI is legible to boards; flow management is not.</text>

<rect x="780" y="530" width="320" height="72" rx="8" fill="#EEEDFE" stroke="#534AB7" stroke-width="0.8"/>
<text class="confirmed" x="796" y="545">DORA 2025</text>
<text class="felt-pain" x="1020" y="545">BUYING TRIGGER</text>
<text class="th" x="940" y="565" text-anchor="middle" fill="#3C3489">C15: Local gains mask system problems</text>
<text class="ts" x="940" y="581" text-anchor="middle" fill="#534AB7">80% report no company-level productivity impact.</text>
<text class="ts" x="940" y="595" text-anchor="middle" fill="#534AB7">More WIP at the bottleneck ù more chaos, not less.</text>

<rect x="1140" y="530" width="220" height="72" rx="8" fill="#EEEDFE" stroke="#534AB7" stroke-width="0.8"/>
<text class="confirmed" x="1156" y="545">DORA 2025</text>
<text class="felt-pain" x="1280" y="545">BUYING TRIGGER</text>
<text class="th" x="1250" y="565" text-anchor="middle" fill="#3C3489">C16: Leaders drowning</text>
<text class="ts" x="1250" y="581" text-anchor="middle" fill="#534AB7">40+ action items/day. AI has zero</text>
<text class="ts" x="1250" y="595" text-anchor="middle" fill="#534AB7">effect on burnout (DORA 2025).</text>

<!-- Arrows tier 4 ù tier 3 -->
<line x1="220" y1="530" x2="1210" y2="452" class="arr" marker-end="url(#arrow)"/>
<line x1="580" y1="530" x2="1210" y2="452" class="arr" marker-end="url(#arrow)"/>
<line x1="940" y1="530" x2="200" y2="452" class="arr" marker-end="url(#arrow)"/>
<line x1="940" y1="530" x2="530" y2="452" class="arr" marker-end="url(#arrow)"/>
<line x1="1250" y1="530" x2="870" y2="452" class="arr" marker-end="url(#arrow)"/>
<!-- NEW: C13 (AI local gains) ? C15 (local gains mask system problems) -->
<line x1="380" y1="566" x2="780" y2="566" class="arr" marker-end="url(#arrow)" stroke="#534AB7" stroke-width="1.4"/>
<!-- NEW: C20 (Kanban stripped) ? C15 (local gains mask system problems) -->
<line x1="1220" y1="680" x2="940" y2="602" class="arr" marker-end="url(#arrow)" stroke="#534AB7" stroke-width="1.4" stroke-dasharray="5 3"/>

<!-- ===== TIER 5: CULTURE ===== -->
<text class="th" x="700" y="660" text-anchor="middle" fill="#085041">People and culture (why it doesn't get fixed)</text>

<rect x="60" y="680" width="300" height="62" rx="8" fill="#E1F5EE" stroke="#0F6E56" stroke-width="0.8"/>
<text class="confirmed" x="76" y="695">CONFIRMED + DORA</text>
<text class="th" x="210" y="713" text-anchor="middle" fill="#085041">C17: Everyone is too busy to fix the system</text>
<text class="ts" x="210" y="729" text-anchor="middle" fill="#0F6E56">40+ items/day. No time for improvement work.</text>

<rect x="400" y="680" width="300" height="62" rx="8" fill="#E1F5EE" stroke="#0F6E56" stroke-width="0.8"/>
<text class="hypothesized" x="416" y="695">HYPOTHESIZED</text>
<text class="th" x="550" y="713" text-anchor="middle" fill="#085041">C18: Delivery is seen as unfixable</text>
<text class="ts" x="550" y="729" text-anchor="middle" fill="#0F6E56">Leaders treat it as weather, not engineering.</text>

<rect x="740" y="680" width="300" height="62" rx="8" fill="#E1F5EE" stroke="#0F6E56" stroke-width="0.8"/>
<text class="hypothesized" x="756" y="695">HYPOTHESIZED</text>
<text class="th" x="890" y="713" text-anchor="middle" fill="#085041">C19: Previous attempts failed</text>
<text class="ts" x="890" y="729" text-anchor="middle" fill="#0F6E56">Hired agile coaches. Tried Scrum. Didn't stick.</text>

<rect x="1080" y="680" width="280" height="62" rx="8" fill="#E1F5EE" stroke="#0F6E56" stroke-width="0.8"/>
<text class="confirmed" x="1096" y="695">DORA 2025</text>
<text class="th" x="1220" y="713" text-anchor="middle" fill="#085041">C20: Kanban stripped to ceremonies</text>
<text class="ts" x="1220" y="729" text-anchor="middle" fill="#0F6E56">WIP management purpose lost.</text>

<!-- Arrows tier 5 ù tier 4 + tier 3 -->
<line x1="210" y1="680" x2="200" y2="452" class="arr" marker-end="url(#arrow)"/>
<line x1="210" y1="680" x2="870" y2="452" class="arr" marker-end="url(#arrow)"/>
<line x1="550" y1="680" x2="530" y2="452" class="arr" marker-end="url(#arrow)"/>
<line x1="890" y1="680" x2="530" y2="452" class="arr" marker-end="url(#arrow)"/>
<line x1="1220" y1="680" x2="200" y2="452" class="arr" marker-end="url(#arrow)"/>

<!-- ===== CORE PROBLEM CONVERGENCE ===== -->
<rect x="250" y="800" width="900" height="72" rx="12" fill="none" stroke="#A32D2D" stroke-width="2" stroke-dasharray="8 5"/>
<rect x="270" y="810" width="860" height="52" rx="8" fill="#FCEBEB" stroke="#A32D2D" stroke-width="1.2"/>
<text class="th" x="700" y="832" text-anchor="middle" fill="#501313" font-size="16">CORE PROBLEM: Nobody manages the flow of work through the system</text>
<text class="ts" x="700" y="850" text-anchor="middle" fill="#791F1F">All root causes trace here. All consultants address symptoms. Addressing THIS = dominant competitive edge.</text>

<!-- Arrows core problem ù root causes -->
<line x1="700" y1="800" x2="200" y2="452" class="arr" marker-end="url(#arrow)"/>
<line x1="700" y1="800" x2="530" y2="452" class="arr" marker-end="url(#arrow)"/>
<line x1="700" y1="800" x2="870" y2="452" class="arr" marker-end="url(#arrow)"/>
<line x1="700" y1="800" x2="1210" y2="452" class="arr" marker-end="url(#arrow)"/>
<line x1="700" y1="800" x2="210" y2="742" class="arr" marker-end="url(#arrow)"/>
<line x1="700" y1="800" x2="1220" y2="742" class="arr" marker-end="url(#arrow)"/>

<!-- ===== DIVIDER ===== -->
<line x1="60" y1="920" x2="1340" y2="920" stroke="#D3D1C7" stroke-width="0.5" stroke-dasharray="4 4"/>
<text class="subtitle" x="700" y="945" text-anchor="middle">Above: what the customer experiences. Below: why they don't hire help to fix it.</text>

<!-- ===== TIER 6: BUYING RISKS ===== -->
<text class="th" x="700" y="980" text-anchor="middle" fill="#0C447C">Risks that prevent buying (why they live with it instead of hiring)</text>

<rect x="60" y="1000" width="250" height="62" rx="8" fill="#E6F1FB" stroke="#185FA5" stroke-width="0.8"/>
<text class="hypothesized" x="76" y="1015">HYPOTHESIZED</text>
<text class="th" x="185" y="1033" text-anchor="middle" fill="#0C447C">B1: Budget risk</text>
<text class="ts" x="185" y="1049" text-anchor="middle" fill="#185FA5">Fought to get budget. Can't waste it.</text>

<rect x="340" y="1000" width="250" height="62" rx="8" fill="#E6F1FB" stroke="#185FA5" stroke-width="0.8"/>
<text class="hypothesized" x="356" y="1015">HYPOTHESIZED</text>
<text class="th" x="465" y="1033" text-anchor="middle" fill="#0C447C">B2: Reputation risk</text>
<text class="ts" x="465" y="1049" text-anchor="middle" fill="#185FA5">If it fails, I look bad to leadership.</text>

<rect x="620" y="1000" width="250" height="62" rx="8" fill="#E6F1FB" stroke="#185FA5" stroke-width="0.8"/>
<text class="hypothesized" x="636" y="1015">HYPOTHESIZED</text>
<text class="th" x="745" y="1033" text-anchor="middle" fill="#0C447C">B3: Generic advice risk</text>
<text class="ts" x="745" y="1049" text-anchor="middle" fill="#185FA5">Consultant gives slides, not solutions.</text>

<rect x="900" y="1000" width="250" height="62" rx="8" fill="#E6F1FB" stroke="#185FA5" stroke-width="0.8"/>
<text class="hypothesized" x="916" y="1015">HYPOTHESIZED</text>
<text class="th" x="1025" y="1033" text-anchor="middle" fill="#0C447C">B4: AI is free, why pay?</text>
<text class="ts" x="1025" y="1049" text-anchor="middle" fill="#185FA5">Admitting AI isn't working is political.</text>

<rect x="1180" y="1000" width="180" height="62" rx="8" fill="#E6F1FB" stroke="#185FA5" stroke-width="0.8"/>
<text class="hypothesized" x="1196" y="1015">HYPOTHESIZED</text>
<text class="th" x="1270" y="1033" text-anchor="middle" fill="#0C447C">B5: No bandwidth</text>
<text class="ts" x="1270" y="1049" text-anchor="middle" fill="#185FA5">Too busy to onboard help.</text>

<!-- ===== COMPARISON SET ===== -->
<text class="th" x="700" y="1120" text-anchor="middle" fill="#72243E">What they do instead (your real competition)</text>

<rect x="100" y="1140" width="220" height="52" rx="8" fill="#FBEAF0" stroke="#993556" stroke-width="0.8"/>
<text class="th" x="210" y="1162" text-anchor="middle" fill="#72243E">Do nothing</text>
<text class="ts" x="210" y="1180" text-anchor="middle" fill="#993556">Pain is familiar. Known cost.</text>

<rect x="350" y="1140" width="220" height="52" rx="8" fill="#FBEAF0" stroke="#993556" stroke-width="0.8"/>
<text class="th" x="460" y="1162" text-anchor="middle" fill="#72243E">Ask AI</text>
<text class="ts" x="460" y="1180" text-anchor="middle" fill="#993556">Free, instant, low risk.</text>

<rect x="600" y="1140" width="220" height="52" rx="8" fill="#FBEAF0" stroke="#993556" stroke-width="0.8"/>
<text class="th" x="710" y="1162" text-anchor="middle" fill="#72243E">Hire an engineer</text>
<text class="ts" x="710" y="1180" text-anchor="middle" fill="#993556">Tangible output. Easy to justify.</text>

<rect x="850" y="1140" width="220" height="52" rx="8" fill="#FBEAF0" stroke="#993556" stroke-width="0.8"/>
<text class="th" x="960" y="1162" text-anchor="middle" fill="#72243E">Buy a tool</text>
<text class="ts" x="960" y="1180" text-anchor="middle" fill="#993556">Software feels safer than people.</text>

<rect x="1100" y="1140" width="220" height="52" rx="8" fill="#FBEAF0" stroke="#993556" stroke-width="0.8"/>
<text class="th" x="1210" y="1162" text-anchor="middle" fill="#72243E">Task an EM internally</text>
<text class="ts" x="1210" y="1180" text-anchor="middle" fill="#993556">No external cost. Low risk.</text>

<!-- ===== CUSTOMER'S CLOUD ===== -->
<rect x="200" y="1250" width="1000" height="70" rx="12" fill="#F8F7F5" stroke="#D3D1C7" stroke-width="1"/>
<text class="th" x="700" y="1278" text-anchor="middle" fill="#2C2C2A">The customer's evaporating cloud</text>
<text class="ts" x="700" y="1298" text-anchor="middle" fill="#555">"I need to fix delivery (the pain is real) BUT I can't risk budget/reputation on something unproven."</text>

<!-- ===== GOLDRATT VALUE LEVERS ===== -->
<text class="th" x="700" y="1375" text-anchor="middle" fill="#27500A">What an unrefusable offer must do (Goldratt's value levers)</text>

<rect x="60" y="1395" width="310" height="90" rx="10" fill="#EAF3DE" stroke="#3B6D11" stroke-width="0.8"/>
<text class="th" x="215" y="1417" text-anchor="middle" fill="#27500A">Reduce lead time to value</text>
<text class="ts" x="215" y="1437" text-anchor="middle" fill="#3B6D11">Show value in 2 weeks, not 3 months.</text>
<text class="ts" x="215" y="1453" text-anchor="middle" fill="#3B6D11">Quick diagnostic ù surface top bottleneck ù</text>
<text class="ts" x="215" y="1469" text-anchor="middle" fill="#3B6D11">one actionable fix immediately.</text>

<rect x="400" y="1395" width="280" height="90" rx="10" fill="#EAF3DE" stroke="#3B6D11" stroke-width="0.8"/>
<text class="th" x="540" y="1417" text-anchor="middle" fill="#27500A">Reduce risk / inventory</text>
<text class="ts" x="540" y="1437" text-anchor="middle" fill="#3B6D11">No big contract. Diagnostic first.</text>
<text class="ts" x="540" y="1453" text-anchor="middle" fill="#3B6D11">Pay-for-outcomes if possible.</text>
<text class="ts" x="540" y="1469" text-anchor="middle" fill="#3B6D11">Proof before commitment.</text>

<rect x="710" y="1395" width="310" height="90" rx="10" fill="#EAF3DE" stroke="#3B6D11" stroke-width="0.8"/>
<text class="th" x="865" y="1417" text-anchor="middle" fill="#27500A">Increase throughput / value</text>
<text class="ts" x="865" y="1437" text-anchor="middle" fill="#3B6D11">Tie impact to their metrics (DORA, OKRs).</text>
<text class="ts" x="865" y="1453" text-anchor="middle" fill="#3B6D11">"What does 1 month of delay cost you?"</text>
<text class="ts" x="865" y="1469" text-anchor="middle" fill="#3B6D11">Make the cost of inaction concrete.</text>

<rect x="1050" y="1395" width="300" height="90" rx="10" fill="#EAF3DE" stroke="#3B6D11" stroke-width="0.8"/>
<text class="th" x="1200" y="1417" text-anchor="middle" fill="#27500A">Reduce operating expense</text>
<text class="ts" x="1200" y="1437" text-anchor="middle" fill="#3B6D11">Your fee is tiny vs. the cost of broken delivery.</text>
<text class="ts" x="1200" y="1453" text-anchor="middle" fill="#3B6D11">Frame against the problem, not against</text>
<text class="ts" x="1200" y="1469" text-anchor="middle" fill="#3B6D11">other consultants' rates.</text>

<!-- ===== VALIDATE ===== -->
<rect x="150" y="1550" width="1100" height="170" rx="12" fill="#FAEEDA" stroke="#854F0B" stroke-width="0.8"/>
<text class="th" x="700" y="1578" text-anchor="middle" fill="#633806">Critical assumptions to validate (discovery calls)</text>

<text class="ts" x="180" y="1606" fill="#444">1. "Leaders see delivery as unfixable complexity"  or is it fixable but not worth the effort? (changes: belief vs. cost/benefit)</text>
<text class="ts" x="180" y="1626" fill="#444">2. "Previous improvement attempts failed"  or never tried? (changes: cynical vs. uninformed buyer)</text>
<text class="ts" x="180" y="1646" fill="#444">3. "AI is free, why pay a human?"  is admitting AI isn't working politically dangerous? (changes: framing approach)</text>
<text class="ts" x="180" y="1666" fill="#444">4. Which buying risks (B1-B5) are the real blockers? (shapes the unrefusable offer)</text>
<text class="ts" x="180" y="1686" fill="#444">5. THE QUESTION: "If you had budget for one external person, what problem would you point them at?"</text>
<text class="ts" x="180" y="1706" fill="#444">6. What language do they use? Not "flow" or "WIP"  what are their words for these problems?</text>

<!-- ===== LEGEND ===== -->
<text class="th" x="60" y="1790" fill="#333" font-size="13">Legend</text>
<rect x="60" y="1805" width="16" height="16" rx="3" fill="#FCEBEB" stroke="#A32D2D" stroke-width="0.6"/>
<text class="legend-text" x="82" y="1818">Business outcomes</text>
<rect x="210" y="1805" width="16" height="16" rx="3" fill="#FAECE7" stroke="#993C1D" stroke-width="0.6"/>
<text class="legend-text" x="232" y="1818">Delivery system</text>
<rect x="340" y="1805" width="16" height="16" rx="3" fill="#FAEEDA" stroke="#854F0B" stroke-width="0.6"/>
<text class="legend-text" x="362" y="1818">Root causes</text>
<rect x="450" y="1805" width="16" height="16" rx="3" fill="#EEEDFE" stroke="#534AB7" stroke-width="0.6"/>
<text class="legend-text" x="472" y="1818">AI dynamics (NEW)</text>
<rect x="580" y="1805" width="16" height="16" rx="3" fill="#E1F5EE" stroke="#0F6E56" stroke-width="0.6"/>
<text class="legend-text" x="602" y="1818">People / culture</text>
<rect x="700" y="1805" width="16" height="16" rx="3" fill="#E6F1FB" stroke="#185FA5" stroke-width="0.6"/>
<text class="legend-text" x="722" y="1818">Buying risks</text>
<rect x="810" y="1805" width="16" height="16" rx="3" fill="#FBEAF0" stroke="#993556" stroke-width="0.6"/>
<text class="legend-text" x="832" y="1818">Comparison set</text>
<rect x="930" y="1805" width="16" height="16" rx="3" fill="#EAF3DE" stroke="#3B6D11" stroke-width="0.6"/>
<text class="legend-text" x="952" y="1818">Unrefusable offer levers</text>

<text class="th" x="60" y="1845" fill="#333" font-size="13">Evidence tags</text>
<text class="confirmed" x="60" y="1865">CONFIRMED</text>
<text class="legend-text" x="140" y="1865">= observed firsthand or research-backed (DORA, Faros)</text>
<text class="legend-text" x="490" y="1865">|</text>
<text class="confirmed" x="510" y="1865">WORKSHOP</text>
<text class="legend-text" x="580" y="1865">= customer said it unprompted</text>
<text class="legend-text" x="60" y="1885">  </text>
<text class="inferred" x="60" y="1885">INFERRED</text>
<text class="legend-text" x="120" y="1885">= strong inference from data</text>
<text class="legend-text" x="340" y="1885">|</text>
<text class="hypothesized" x="360" y="1885">HYPOTHESIZED</text>
<text class="legend-text" x="450" y="1885">= needs validation via discovery calls</text>
<text class="legend-text" x="700" y="1885">|</text>
<text class="felt-pain" x="720" y="1885">BUYING TRIGGER</text>
<text class="legend-text" x="820" y="1885">= UDE painful enough to trigger purchase</text>

<text class="subtitle" x="700" y="1920" text-anchor="middle">Sources: DORA 2025 (n=4,916), Faros AI Productivity Paradox, customer mapping sessions, qualitative field observations.</text>
</svg>
