<svg xmlns="http://www.w3.org/2000/svg" width="114" height="35" viewBox="0 0 114 35">  <path d="M3.3,3.55c.26,0,.51.06.75.16,6.38,2.14,10.68,8.12,10.68,14.85-6.39.02-12.16-3.83-14.6-9.74-.08-.21-.13-.43-.13-.66v-.24c.04-.29.14-.57.29-.82.56-1.05,1.22-2.04,1.97-2.96.18-.26.45-.45.75-.53.09-.03.19-.05.29-.05M24.97,33.97c.36.18.76.3,1.16.34h.13c.48-.04.96-.17,1.39-.4.8-.4,1.58-.86,2.32-1.38.41-.3.69-.73.8-1.22.09-.48.04-.97-.13-1.43-2.28-6.14-8.18-10.19-14.73-10.09-.06,6.1,3.49,11.66,9.06,14.16M2.24,25.84c-.38.42-.61.95-.64,1.51-.05.51.09,1.02.4,1.43,1.06,1.37,2.29,2.59,3.68,3.63.37.28.82.44,1.28.45.47,0,.92-.17,1.28-.48,4.02-2.94,6.4-7.62,6.39-12.6-4.83.03-9.39,2.26-12.38,6.06M26.13.61c-6.3,3.76-10.17,10.56-10.18,17.9,7.45,0,14.35-3.92,18.14-10.33.43-.67.6-1.47.51-2.25-.07-.62-.34-1.21-.77-1.67-1.1-1.42-2.39-2.69-3.84-3.76C29.43.15,28.77-.02,28.1,0h-.11c-.66.05-1.3.26-1.86.61M51.6,19.81l3.22,9.43h-3.46l-2.88-8.66c-.13,0-.24.03-.4.03h-1.23v8.63h-3.33V8.53h4.69c2.29,0,3.78.45,4.83,1.46,1.06,1.15,1.61,2.67,1.55,4.24,0,2.54-.97,4.45-2.74,5.45-.08.05-.16.08-.24.13M48.38,11.31c-.29,0-1.12,0-1.52-.03v6.59h1.57c.71.02,1.4-.25,1.92-.74.63-.74.94-1.7.86-2.67-.03-2.17-.88-3.12-2.82-3.15M62.77,20.18h5.25v-2.97h-5.26v-5.67h6.55v-3.02h-9.88v20.7h10.26v-3.02h-6.93v-6.04ZM91.03,20.18h5.25v-2.97h-5.26v-5.67h6.58v-3.02h-9.89v20.7h10.26v-3.02h-6.92v-6.04h-.02ZM77.3,8.53h-3.33v20.7h10.1v-2.96h-6.77V8.53ZM109.21,18.61l4.37-10.09h-3.33l-2.02,4.82c-.24.61-.48,1.19-.75,1.91-.29-.69-.54-1.27-.83-1.82l-2.02-4.77-.05-.11h-3.41l4.24,10.14-4.58,10.3-.13.26h3.54l2.13-5c.32-.71.61-1.48.91-2.22.32.79.59,1.46.91,2.17l2.18,4.95.05.11h3.6l-4.79-10.65Z" style="fill:var(--color-brand-blue-900)"></path></svg>